<?xml version="1.0" encoding="UTF-8" standalone="no"?>
<svg width="317.5mm" height="21.1667mm"
 xmlns="http://www.w3.org/2000/svg" xmlns:xlink="http://www.w3.org/1999/xlink"  version="1.2" baseProfile="tiny">
<desc>Created by HiQPdf</desc>
<defs>
</defs>
<g fill="none" stroke="black" stroke-width="1" fill-rule="evenodd" stroke-linecap="square" stroke-linejoin="bevel" >

<g fill="#000000" fill-opacity="1" stroke="#000000" stroke-opacity="1" stroke-width="1" stroke-linecap="square" stroke-linejoin="miter" stroke-miterlimit="2" transform="matrix(1,0,0,1,0,0)"
>
</g>

<g fill="#000000" fill-opacity="1" stroke="#000000" stroke-opacity="1" stroke-width="1" stroke-linecap="square" stroke-linejoin="miter" stroke-miterlimit="2" transform="matrix(1,0,0,1,0,0)"
>
</g>

<g fill="#000000" fill-opacity="1" stroke="#000000" stroke-opacity="1" stroke-width="1" stroke-linecap="square" stroke-linejoin="miter" stroke-miterlimit="2" transform="matrix(1,0,0,1,0,0)"
>
</g>

<g fill="#000000" fill-opacity="1" stroke="#000000" stroke-opacity="1" stroke-width="1" stroke-linecap="square" stroke-linejoin="miter" stroke-miterlimit="2" transform="matrix(1,0,0,1,8,8)"
>
</g>

<g fill="#000000" fill-opacity="1" stroke="#000000" stroke-opacity="1" stroke-width="1" stroke-linecap="square" stroke-linejoin="miter" stroke-miterlimit="2" transform="matrix(1,0,0,1,8,8)"
>
</g>

<g fill="#000000" fill-opacity="1" stroke="#000000" stroke-opacity="1" stroke-width="1" stroke-linecap="square" stroke-linejoin="miter" stroke-miterlimit="2" transform="matrix(0.999952,0,0,0.999952,8.00116,8)"
>
</g>

<g fill="#000000" fill-opacity="1" stroke="#000000" stroke-opacity="1" stroke-width="1" stroke-linecap="square" stroke-linejoin="miter" stroke-miterlimit="2" transform="matrix(0.797991,0,0,0.797991,0.500051,0.498886)"
>
</g>

<g fill="#3fc1c9" fill-opacity="1" stroke="none" transform="matrix(0.797991,0,0,0.797991,0.500051,0.498886)"
>
<path vector-effect="none" fill-rule="nonzero" d="M67.8,50 C67.8,59.8307 59.8307,67.8 50,67.8 C40.1693,67.8 32.2,59.8307 32.2,50 C32.2,40.1693 40.1693,32.2 50,32.2 C59.8307,32.2 67.8,40.1693 67.8,50 "/>
</g>

<g fill="#000000" fill-opacity="1" stroke="#000000" stroke-opacity="1" stroke-width="1" stroke-linecap="square" stroke-linejoin="miter" stroke-miterlimit="2" transform="matrix(0.797991,0,0,0.797991,0.500051,0.498886)"
>
</g>

<g fill="#3fc1c9" fill-opacity="1" stroke="none" transform="matrix(0.797991,0,0,0.797991,0.500051,0.498886)"
>
<path vector-effect="none" fill-rule="nonzero" d="M50,78.9 C66,78.9 78.9,65.9 78.9,50 C78.9,41.1 74.9,32.9 68,27.4 L62.7,34.1 C67.6,38 70.4,43.8 70.4,50 C70.4,61.2 61.3,70.4 50,70.4 C38.8,70.4 29.6,61.3 29.6,50 C29.6,38.7 38.8,29.6 50,29.6 C50.9,29.6 51.8,29.7 52.7,29.8 L53.8,21.3 C52.5,21.1 51.2,21 49.9,21 C33.9,21 21,34 21,49.9 C21.1,66 34,78.9 50,78.9 "/>
</g>

<g fill="#000000" fill-opacity="1" stroke="#000000" stroke-opacity="1" stroke-width="1" stroke-linecap="square" stroke-linejoin="miter" stroke-miterlimit="2" transform="matrix(0.797991,0,0,0.797991,0.500051,0.498886)"
>
</g>

<g fill="#3fc1c9" fill-opacity="1" stroke="none" transform="matrix(0.797991,0,0,0.797991,0.500051,0.498886)"
>
<path vector-effect="none" fill-rule="nonzero" d="M50,82.1 C42.7,82.1 35.9,79.7 30.2,75.2 L24.9,81.9 C32.1,87.6 40.8,90.6 50,90.6 C65.2,90.6 79,82.2 86,68.8 L78.5,64.9 C72.9,75.5 62,82.1 50,82.1 "/>
</g>

<g fill="#000000" fill-opacity="1" stroke="#000000" stroke-opacity="1" stroke-width="1" stroke-linecap="square" stroke-linejoin="miter" stroke-miterlimit="2" transform="matrix(0.797991,0,0,0.797991,0.500051,0.498886)"
>
</g>

<g fill="#3fc1c9" fill-opacity="1" stroke="none" transform="matrix(0.797991,0,0,0.797991,0.500051,0.498886)"
>
<path vector-effect="none" fill-rule="nonzero" d="M46.4,18.1 C47.6,18 48.8,17.9 50,17.9 C67.7,17.9 82.1,32.3 82.1,50 L90.6,50 C90.6,27.6 72.4,9.4 50,9.4 C48.5,9.4 47,9.5 45.5,9.6 C24.9,11.9 9.4,29.3 9.4,50 C9.4,54.4 10.1,58.7 11.5,62.8 L19.6,60.1 C18.5,56.8 18,53.4 18,49.9 C17.9,33.6 30.2,19.9 46.4,18.1 "/>
</g>

<g fill="#000000" fill-opacity="1" stroke="#000000" stroke-opacity="1" stroke-width="1" stroke-linecap="square" stroke-linejoin="miter" stroke-miterlimit="2" transform="matrix(0.797991,0,0,0.797991,0.500051,0.498886)"
>
</g>

<g fill="#000000" fill-opacity="1" stroke="#000000" stroke-opacity="1" stroke-width="1" stroke-linecap="square" stroke-linejoin="miter" stroke-miterlimit="2" transform="matrix(0.797991,0,0,0.797991,0.500051,0.498886)"
>
</g>

<g fill="#000000" fill-opacity="1" stroke="#000000" stroke-opacity="1" stroke-width="1" stroke-linecap="square" stroke-linejoin="miter" stroke-miterlimit="2" transform="matrix(0.999952,0,0,0.999952,8.00116,8)"
>
</g>

<g fill="#000000" fill-opacity="1" stroke="#000000" stroke-opacity="1" stroke-width="1" stroke-linecap="square" stroke-linejoin="miter" stroke-miterlimit="2" transform="matrix(2.49988,0,0,2.49988,89.9972,8.49998)"
>
</g>

<g fill="#f5f5f5" fill-opacity="1" stroke="none" transform="matrix(2.49988,0,0,2.49988,89.9972,8.49998)"
>
<path vector-effect="none" fill-rule="nonzero" d="M4.12,6 L4.12,20 L1.2,20 L1.2,6 L4.12,6 M13.48,5.8 C17.38,5.8 20.74,8.74 20.74,13 C20.74,17.26 17.38,20.2 13.48,20.2 C9.58,20.2 6.22,17.26 6.22,13 C6.22,8.74 9.58,5.8 13.48,5.8 L13.48,5.8 M13.48,17.46 C15.84,17.46 17.7,15.6 17.7,13 C17.7,10.4 15.84,8.54 13.48,8.54 C11.12,8.54 9.26,10.4 9.26,13 C9.26,15.6 11.12,17.46 13.48,17.46 M32,6 L34.92,6 L34.92,20 L32.7,20 L25.76,11.32 L25.76,20 L22.84,20 L22.84,6 L25.1,6 L32,14.7 L32,6 L32,6 M40.24,6 L40.24,20 L37.32,20 L37.32,6 L40.24,6 L40.24,6 M53.82,20 L52.76,17.5 L46,17.5 L44.94,20 L41.84,20 L48.06,6 L50.7,6 L56.94,20 L53.82,20 L53.82,20 M47.02,15.12 L51.74,15.12 L49.38,9.58 L47.02,15.12"/>
</g>

<g fill="#000000" fill-opacity="1" stroke="#000000" stroke-opacity="1" stroke-width="1" stroke-linecap="square" stroke-linejoin="miter" stroke-miterlimit="2" transform="matrix(2.49988,0,0,2.49988,89.9972,8.49998)"
>
</g>

<g fill="#000000" fill-opacity="1" stroke="#000000" stroke-opacity="1" stroke-width="1" stroke-linecap="square" stroke-linejoin="miter" stroke-miterlimit="2" transform="matrix(0.999952,0,0,0.999952,8.00116,8)"
>
</g>

<g fill="#000000" fill-opacity="1" stroke="#000000" stroke-opacity="1" stroke-width="1" stroke-linecap="square" stroke-linejoin="miter" stroke-miterlimit="2" transform="matrix(1.02852,0,0,1.02852,237.756,27.8276)"
>
</g>

<g fill="#f5f5f5" fill-opacity="1" stroke="none" transform="matrix(1.02852,0,0,1.02852,237.756,27.8276)"
>
<path vector-effect="none" fill-rule="nonzero" d="M11.46,6 L12.04,6 L12.04,20 L11.6,20 L1.78,7.1 L1.78,20 L1.2,20 L1.2,6 L1.64,6 L11.46,18.94 L11.46,6 L11.46,6 M15.02,19.42 L21.96,19.42 L21.96,20 L14.44,20 L14.44,6 L15.02,6 L15.02,19.42 M28.22,6 C31.36,6 33.02,7.94 33.02,10.3 C33.02,12.72 31.36,14.64 28.22,14.64 L24.54,14.64 L24.54,20 L23.96,20 L23.96,6 L28.22,6 L28.22,6 M28.3,14.04 C30.82,14.04 32.44,12.58 32.44,10.3 C32.44,7.98 30.82,6.58 28.3,6.58 L24.54,6.58 L24.54,14.04 L28.3,14.04"/>
</g>

<g fill="#000000" fill-opacity="1" stroke="#000000" stroke-opacity="1" stroke-width="1" stroke-linecap="square" stroke-linejoin="miter" stroke-miterlimit="2" transform="matrix(1.02852,0,0,1.02852,237.756,27.8276)"
>
</g>

<g fill="#000000" fill-opacity="1" stroke="#000000" stroke-opacity="1" stroke-width="1" stroke-linecap="square" stroke-linejoin="miter" stroke-miterlimit="2" transform="matrix(0.999952,0,0,0.999952,8.00116,8)"
>
</g>

<g fill="#000000" fill-opacity="1" stroke="#000000" stroke-opacity="1" stroke-width="1" stroke-linecap="square" stroke-linejoin="miter" stroke-miterlimit="2" transform="matrix(0.999952,0,0,0.999952,8.00116,8)"
>
</g>

<g fill="#000000" fill-opacity="1" stroke="#000000" stroke-opacity="1" stroke-width="1" stroke-linecap="square" stroke-linejoin="miter" stroke-miterlimit="2" transform="matrix(1,0,0,1,0,0)"
>
</g>

<g fill="#000000" fill-opacity="1" stroke="#000000" stroke-opacity="1" stroke-width="1" stroke-linecap="square" stroke-linejoin="miter" stroke-miterlimit="2" transform="matrix(1,0,0,1,0,0)"
>
</g>

<g fill="#000000" fill-opacity="1" stroke="#000000" stroke-opacity="1" stroke-width="1" stroke-linecap="square" stroke-linejoin="miter" stroke-miterlimit="2" transform="matrix(1,0,0,1,8,8)"
>
</g>

<g fill="#000000" fill-opacity="1" stroke="#000000" stroke-opacity="1" stroke-width="1" stroke-linecap="square" stroke-linejoin="miter" stroke-miterlimit="2" transform="matrix(1,0,0,1,8,8)"
>
</g>

<g fill="#000000" fill-opacity="1" stroke="#000000" stroke-opacity="1" stroke-width="1" stroke-linecap="square" stroke-linejoin="miter" stroke-miterlimit="2" transform="matrix(0.999952,0,0,0.999952,8.00116,8)"
>
</g>

<g fill="#000000" fill-opacity="1" stroke="#000000" stroke-opacity="1" stroke-width="1" stroke-linecap="square" stroke-linejoin="miter" stroke-miterlimit="2" transform="matrix(0.797991,0,0,0.797991,0.500051,0.498886)"
>
</g>

<g fill="#000000" fill-opacity="1" stroke="#000000" stroke-opacity="1" stroke-width="1" stroke-linecap="square" stroke-linejoin="miter" stroke-miterlimit="2" transform="matrix(0.797991,0,0,0.797991,0.500051,0.498886)"
>
</g>

<g fill="#000000" fill-opacity="1" stroke="#000000" stroke-opacity="1" stroke-width="1" stroke-linecap="square" stroke-linejoin="miter" stroke-miterlimit="2" transform="matrix(0.999952,0,0,0.999952,8.00116,8)"
>
</g>

<g fill="#000000" fill-opacity="1" stroke="#000000" stroke-opacity="1" stroke-width="1" stroke-linecap="square" stroke-linejoin="miter" stroke-miterlimit="2" transform="matrix(0.999952,0,0,0.999952,8.00116,8)"
>
</g>

<g fill="#000000" fill-opacity="1" stroke="#000000" stroke-opacity="1" stroke-width="1" stroke-linecap="square" stroke-linejoin="miter" stroke-miterlimit="2" transform="matrix(0.999952,0,0,0.999952,8.00116,8)"
>
</g>

<g fill="#000000" fill-opacity="1" stroke="#000000" stroke-opacity="1" stroke-width="1" stroke-linecap="square" stroke-linejoin="miter" stroke-miterlimit="2" transform="matrix(0.999952,0,0,0.999952,8.00116,8)"
>
</g>

<g fill="#000000" fill-opacity="1" stroke="#000000" stroke-opacity="1" stroke-width="1" stroke-linecap="square" stroke-linejoin="miter" stroke-miterlimit="2" transform="matrix(1,0,0,1,0,0)"
>
</g>

<g fill="#000000" fill-opacity="1" stroke="#000000" stroke-opacity="1" stroke-width="1" stroke-linecap="square" stroke-linejoin="miter" stroke-miterlimit="2" transform="matrix(1,0,0,1,0,0)"
>
</g>

<g fill="#000000" fill-opacity="1" stroke="#000000" stroke-opacity="1" stroke-width="1" stroke-linecap="square" stroke-linejoin="miter" stroke-miterlimit="2" transform="matrix(1,0,0,1,8,8)"
>
</g>

<g fill="#000000" fill-opacity="1" stroke="#000000" stroke-opacity="1" stroke-width="1" stroke-linecap="square" stroke-linejoin="miter" stroke-miterlimit="2" transform="matrix(1,0,0,1,0,0)"
>
</g>

<g fill="#000000" fill-opacity="1" stroke="#000000" stroke-opacity="1" stroke-width="1" stroke-linecap="square" stroke-linejoin="miter" stroke-miterlimit="2" transform="matrix(1,0,0,1,0,0)"
>
</g>

<g fill="#000000" fill-opacity="1" stroke="#000000" stroke-opacity="1" stroke-width="1" stroke-linecap="square" stroke-linejoin="miter" stroke-miterlimit="2" transform="matrix(1,0,0,1,0,0)"
>
</g>

<g fill="#000000" fill-opacity="1" stroke="#000000" stroke-opacity="1" stroke-width="1" stroke-linecap="square" stroke-linejoin="miter" stroke-miterlimit="2" transform="matrix(1,0,0,1,0,0)"
>
</g>
</g>
</svg>
